<?xml version="1.0" encoding="utf-8"?>
<!-- Generator: Adobe Illustrator 26.3.1, SVG Export Plug-In . SVG Version: 6.00 Build 0)  -->
<svg version="1.1" xmlns="http://www.w3.org/2000/svg" xmlns:xlink="http://www.w3.org/1999/xlink" x="0px" y="0px"
	 viewBox="0 0 598 569" style="enable-background:new 0 0 598 569;" xml:space="preserve">
<style type="text/css">
	.st0{fill:none;}
	.st1{opacity:0.96;fill:#8E8885;}
	.st2{opacity:0.81;fill:#8E8885;}
</style>
<g id="图层_2">
</g>
<g id="图层_1">
	<g>
		<path class="st1" d="M545.41,233.69L338.2,231.5l46.98-7.98c4.21-0.72,6.49-4.46,4.64-7.64L288.17,41.1,c-3.04-5.22-12.63-3.45-12.63,2.33v39.75c-0.23,0.21-0.45,0.43-0.66,0.69L182.65,197.3c-1.31,1.61-1.41,3.66-0.27,5.35l18.56,27.4,l-114.53-1.21c-5.29-0.06-7.76,5.77-3.73,8.81c13.79,10.41,29.63,22.41,57.95,32.13c65.91,22.64,135.31,21.12,175.98,20.21,c96.67-2.17,176.66-25.51,231.01-46.72C553.18,241.11,551.49,233.75,545.41,233.69z M275.53,230.84l-44.25-0.47,c3.92-16.36,8.12-33.73,10.98-42.14c10.89-32.07,21.8-56.65,33.28-79.03V230.84z"/>
		<path class="st2" d="M537.75,337.72C483.39,316.51,403.4,293.16,306.74,291c-40.67-0.91-110.07-2.43-175.98,20.21,c-28.32,9.73-44.15,21.72-57.95,32.13c-4.02,3.04-1.55,8.87,3.73,8.81l114.53-1.21l-18.56,27.4c-1.14,1.69-1.04,3.74,0.27,5.35,l92.23,113.44c0.2,0.25,0.43,0.48,0.66,0.69v39.75c0,5.78,9.59,7.55,12.63,2.33l101.66-174.78c1.85-3.17-0.43-6.92-4.64-7.64,l-46.98-7.98l207.21-2.19C541.61,347.25,543.31,339.89,537.75,337.72z M265.66,471.79c-11.48-22.38-22.39-46.97-33.28-79.03,c-2.85-8.41-7.05-25.78-10.98-42.14l44.25-0.47V471.79z"/>
	</g>
</g>
</svg>
